<?xml version="1.0" encoding="utf-8"?>
<!-- Generator: Adobe Illustrator 23.0.1, SVG Export Plug-In . SVG Version: 6.00 Build 0)  -->
<svg version="1.1" id="Layer_1" xmlns="http://www.w3.org/2000/svg" xmlns:xlink="http://www.w3.org/1999/xlink" x="0px" y="0px"
	 viewBox="0 0 4000 2000" style="enable-background:new 0 0 4000 2000;" xml:space="preserve">
<style type="text/css">
	.st0{fill:url(#SVGID_1_);}
	.st1{fill:url(#SVGID_2_);}
</style>
<rect width="4000" height="2000"/>
<g>
</g>
<g>
	<linearGradient id="SVGID_1_" gradientUnits="userSpaceOnUse" x1="466.57" y1="1329.4374" x2="1125.4443" y2="670.563">
		<stop  offset="0" style="stop-color:#0CA473"/>
		<stop  offset="1" style="stop-color:#47D69C"/>
	</linearGradient>
	<path class="st0" d="M935.14,591.76H656.88c-148.63,0-269.16,120.43-269.16,269.16v278.16c0,148.73,120.53,269.16,269.16,269.16
		h278.26c148.63,0,269.16-120.43,269.16-269.16V860.92C1204.29,712.19,1083.77,591.76,935.14,591.76z M966.11,1294.64
		c-10.89,6.33-23.75,9.5-38,9.5c-30.87,0-67.68-14.74-106.47-42.55c-1.48-1.09-3.07-2.08-4.55-3.36
		c-6.73-4.85-13.65-10.39-20.88-16.62v0.1l-2.87-2.47c-7.62-6.43-15.24-13.36-22.36-20.58c-7.22-7.03-14.35-14.35-20.98-21.67
		c-31.76-34.63-61.15-75.01-87.18-120.13l-1.39-2.47c-5.54-9.5-10.19-18.31-14.65-26.92c-3.27,8.61-6.04,16.82-8.41,24.84
		c-0.59,1.48-0.99,2.87-1.29,4.16c-3.56,11.38-6.53,22.46-9.1,34.34l-0.3,1.39c-3.07,13.85-5.34,27.51-6.73,40.47
		c-7.42,65.8,8.31,99.65,24.15,108.75c15.24,8.71,51.26,6.04,102.52-30.68l2.97-2.18l2.57,2.57c7.82,7.82,14.94,14.55,21.97,20.58
		l4.06,3.46l-4.26,3.17c-40.67,29.88-79.06,45.72-111.22,45.72c-14.25,0-27.01-3.17-37.8-9.4c-35.52-20.48-51.26-74.12-43.14-147.05
		c1.09-8.71,2.37-17.71,4.06-26.72l0.59-3.27c0-0.1,0-0.2,0.1-0.4c0.69-4.06,1.48-8.21,2.47-12.37l0.1-0.89
		c1.29-5.44,2.47-10.79,3.86-16.23l1.19-4.55c1.98-7.52,4.25-15.34,7.22-24.54c2.18-7.12,4.65-14.35,7.32-21.67
		c4.55-12.77,9.5-25.13,14.55-37.01c-4.95-11.38-9.2-21.97-12.77-32.06c-0.99-2.37-1.98-5.05-2.87-7.72l-0.4-1.09
		c-2.08-5.94-4.06-11.78-5.84-17.71c-2.57-8.02-4.85-16.23-7.03-24.34c-8.21,2.97-16.13,6.14-23.26,9.5
		c-57.49,26.02-77.88,55.81-77.88,73.42c0,17.61,20.38,47.4,77.88,73.62l3.17,1.48l-0.89,3.46c-1.88,7.03-3.46,14.05-5.05,20.88
		l-2.87,13.46l-4.85-2.18c-67.19-29.29-105.78-69.76-105.78-110.73c0-40.37,37.6-80.25,103.31-109.54v-0.1l2.47-1.19
		c9.2-3.96,17.32-7.13,25.23-9.9l3.37-1.19c4.25-1.48,8.51-2.97,12.96-4.25c5.15-1.78,10.59-3.36,16.03-4.95l4.45-1.19h0.1
		c7.92-2.08,16.03-4.16,24.64-6.04c21.87-4.85,45.52-8.71,70.16-11.38h0.1c10.59-1.19,20.09,6.53,21.18,17.12
		c1.19,10.49-6.43,19.99-16.92,21.18c-0.1,0-0.1,0-0.1,0c-0.1,0-0.1,0-0.2,0c-23.05,2.47-45.22,6.04-66,10.69
		c-5.05,0.99-9.9,2.18-14.65,3.36c-3.46,0.89-6.73,1.68-10.09,2.67c2.18,8.11,4.45,16.13,7.12,24.34
		c2.57,8.61,5.34,16.43,8.21,24.24c9.3,25.73,21.27,52.45,35.43,79.36c4.35,8.11,8.91,16.33,13.56,24.44
		c18.41,32.06,38.89,61.95,60.86,88.86c3.07,3.86,6.14,7.42,9.2,10.98c3.96,4.65,8.11,9.3,12.37,13.85l1.29,1.39
		c9.5,10.39,19.69,20.48,30.08,29.98c10.19,9.2,20.48,17.71,30.68,25.23c1.29,0.99,2.28,1.68,3.17,2.37
		c42.65,30.48,83.02,42.65,103.11,31.07c19.89-11.58,29.29-51.46,24.44-104.1l-0.4-3.66l3.66-0.89c6.53-1.78,13.36-3.56,20.78-6.04
		c1.58-0.49,3.27-1.09,4.75-1.58l8.31-2.67l0.59,5.24C1016.87,1219.63,1000.84,1274.55,966.11,1294.64z M752.66,999.95
		c0-23.95,19.39-43.34,43.34-43.34c23.95,0,43.44,19.4,43.44,43.34c0,24.05-19.49,43.44-43.44,43.44
		C772.06,1043.39,752.66,1024,752.66,999.95z M1030.43,1110.68c-7.62,3.46-16.03,6.83-25.33,10.09l-3.36,1.19
		c-4.16,1.58-8.51,2.97-12.86,4.35c-5.34,1.78-10.79,3.36-16.33,4.85c-9.7,2.77-19.69,5.24-29.59,7.42
		c-21.67,4.85-45.12,8.71-69.47,11.18h-0.1c-10.59,1.09-20.09-6.53-21.18-17.12c-0.99-9.9,5.54-18.8,15.14-20.88c0,0,0,0,0.1,0
		l1.78-0.3c0.5-0.1,0.99-0.1,1.39-0.1c22.56-2.28,44.23-5.84,64.42-10.39c9.1-1.98,17.22-3.96,24.84-6.14
		c-1.98-7.72-4.16-15.73-6.93-24.44c-2.47-7.92-5.05-16.03-8.11-24.24c-9.6-26.42-21.57-53.04-35.33-79.36
		c-4.26-8.02-8.71-15.93-13.56-24.54c-18.7-32.16-39.09-61.85-60.76-88.27c-6.93-8.61-14.35-17.22-22.17-25.63
		c-0.4-0.49-0.69-0.79-0.89-0.99c-20.19-21.77-40.57-40.18-60.86-54.82c-32.85-24.24-64.82-38.2-87.67-38.2
		c-7.52,0-13.65,1.48-18.41,4.25c-20.09,11.68-29.69,52.54-24.74,104.2l0.4,3.66l-3.46,0.89c-7.12,1.78-13.95,3.86-20.68,5.94
		c-2.87,0.89-5.44,1.88-8.11,2.67l-4.85,1.68l-0.89-5.05c-0.2-1.78-0.4-3.66-0.59-5.54c-6.93-69.96,9.1-121.62,43.74-141.7
		c34.73-20.09,90.35-6.43,148.73,36.42c7.32,5.44,14.45,10.98,21.18,16.72l0.1-0.1l2.67,2.37c8.21,7.03,15.44,13.75,22.46,20.68
		l3.36,3.17c5.84,5.94,11.77,11.97,17.61,18.41c31.57,34.34,60.95,74.81,87.08,120.03c0.49,0.99,0.99,1.78,1.48,2.77
		c4.95,8.61,9.8,17.52,14.65,26.72c2.97-8.11,5.84-16.33,8.41-24.74c0.5-1.58,0.99-3.17,1.48-4.55c3.66-12.27,6.63-23.45,8.91-34.24
		v-0.2l0.4,0.1h1.09l-1.29-0.49c0-0.3,0-0.4,0.1-0.5c3.17-14.65,5.44-28.3,6.73-40.57c7.42-65.8-8.41-99.65-24.24-108.75
		c-15.14-8.71-51.16-5.94-102.52,30.77l-3.07,2.08l-2.47-2.47c-6.93-7.03-14.35-13.95-21.97-20.58l-4.06-3.56l4.25-3.07
		c59.08-43.74,113.5-57,149.03-36.42c29.49,17.02,45.22,56.8,45.22,111.42c0,11.18-0.69,23.15-1.98,35.72
		c-1.09,8.61-2.47,17.61-4.16,26.72h0.1l-0.69,3.46c0,0.1,0,0.1,0,0.2c-0.69,3.96-1.48,8.02-2.47,12.07l-0.2,1.19
		c-1.19,5.44-2.47,10.79-3.86,16.23l-1.19,4.45c-2.28,8.31-4.55,16.43-7.22,24.54c-2.18,7.22-4.55,14.45-7.22,21.77
		c-4.45,12.37-9.4,24.74-14.65,36.81c4.75,10.89,8.91,21.47,12.86,31.96c3.37,9.3,6.33,18.01,9,26.72
		c2.47,7.92,4.85,16.13,7.13,24.44c8.31-3.17,16.23-6.33,23.25-9.6c57.39-26.02,77.78-55.91,77.78-73.52
		c0-17.51-20.39-47.3-77.78-73.42l-3.27-1.48l0.89-3.46c1.88-7.03,3.56-13.95,5.15-20.88c0.69-3.27,1.19-5.84,1.68-8.31l0.99-5.34
		l4.95,2.18c67.19,29.49,105.78,69.86,105.78,110.73C1136.21,1041.02,1097.62,1081.39,1030.43,1110.68z"/>
	<linearGradient id="SVGID_2_" gradientUnits="userSpaceOnUse" x1="1838.1561" y1="1731.0726" x2="3212.762" y2="356.4666">
		<stop  offset="0" style="stop-color:#0CA473"/>
		<stop  offset="1" style="stop-color:#47D69C"/>
	</linearGradient>
	<path class="st1" d="M1613.9,759.85c-8.17-19.63-22.96-30-42.73-30c-13.4,0-31.68,5.17-42.83,30.24l-172.98,445.09
		c-2.93,6.48-4.41,13.13-4.41,19.77c0,12.41,4.38,23.15,12.99,31.9c8.67,8.82,19.39,13.28,31.87,13.28
		c12.44,0,23.2-4.45,31.96-13.22c4.37-4.38,7.74-9.17,10.2-14.73l47.49-121.29h169.71l49.06,121.74c2.27,5.09,5.64,9.89,9.88,14.15
		c8.58,8.85,19.27,13.34,31.77,13.34c12.44,0,23.2-4.45,31.96-13.22s13.22-19.53,13.22-31.96c0-6.34-1.13-12.38-3.33-17.86
		L1613.9,759.85z M1620.2,1030.54h-99.74l50.71-130.57L1620.2,1030.54z M2275.46,743.07c8.77,8.77,13.22,19.53,13.22,31.96
		c0,12.44-4.45,23.19-13.22,31.96c-8.77,8.77-19.52,13.22-31.96,13.22h-117.22v404.74c0,12.44-4.45,23.19-13.22,31.96
		s-19.52,13.22-31.96,13.22c-12.44,0-23.2-4.45-31.96-13.22c-8.77-8.77-13.22-19.53-13.22-31.96V820.22H1918.7
		c-12.44,0-23.2-4.45-31.96-13.22c-8.77-8.77-13.22-19.53-13.22-31.96c0-12.44,4.45-23.19,13.22-31.96
		c8.77-8.77,19.52-13.22,31.96-13.22h324.8C2255.94,729.85,2266.7,734.3,2275.46,743.07z M2848.61,809.2
		c-52.67-52.65-116.86-79.35-190.8-79.35c-74.17,0-138.47,26.69-191.12,79.35c-52.44,52.43-79.02,116.63-79.02,190.8
		c0,74.39,26.58,138.69,79.02,191.12c52.43,52.43,116.74,79.02,191.12,79.02c74.17,0,138.37-26.59,190.8-79.02
		c52.65-52.65,79.35-116.95,79.35-191.12c0-37.35-6.67-72.23-19.8-103.69C2895.02,864.88,2874.99,835.57,2848.61,809.2z
		 M2657.82,1179.77c-50.2,0-91.8-17.2-127.19-52.58c-34.9-34.88-52.58-77.68-52.58-127.19c0-25.26,4.35-48.5,12.94-69.09
		c8.6-20.63,21.94-40.07,39.64-57.78c17.73-17.73,37.22-31.13,57.95-39.81c20.73-8.7,44.03-13.1,69.24-13.1
		c49.99,0,91.59,17.31,127.19,52.91c34.9,34.9,52.58,77.58,52.58,126.87c0,49.51-17.69,92.3-52.58,127.19
		C2749.61,1162.57,2708,1179.77,2657.82,1179.77z M3612.28,775.04v449.92c0,12.44-4.45,23.19-13.22,31.96
		c-8.79,8.77-19.55,13.22-31.96,13.22c-12.44,0-23.2-4.45-31.96-13.22c-8.77-8.75-13.22-19.51-13.22-31.96V966.71l-140.27,280.26
		c-8.98,15.37-22.52,23.16-39.5,23.16c-18.43,0-32.68-9.29-41.18-26.85l-138.59-276.61v258.28c0,12.44-4.45,23.19-13.22,31.96
		c-8.79,8.77-19.55,13.22-31.96,13.22c-12.44,0-23.2-4.45-31.96-13.22c-8.77-8.75-13.22-19.51-13.22-31.96V775.04
		c0-6.18,1.14-12.09,3.41-17.57c2.23-5.47,5.48-10.38,9.64-14.54c4.07-4.1,8.91-7.34,14.32-9.63c5.4-2.28,11.4-3.44,17.81-3.44
		c17.29,0,31.09,8.3,39.91,24l185.05,369.77l184.81-369.31c12.81-20.38,28.85-24.46,40.15-24.46c6.16,0,12.06,1.15,17.56,3.4
		c5.55,2.29,10.46,5.55,14.57,9.68c4.13,4.14,7.39,9.03,9.65,14.55C3611.14,763,3612.28,768.91,3612.28,775.04z"/>
</g>
</svg>
